<svg fill="#000000" xmlns="http://www.w3.org/2000/svg"  viewBox="0 0 48 48" width="50px" height="50px"><path d="M 11.5 6 C 8.4802259 6 6 8.4802259 6 11.5 L 6 36.5 C 6 39.519774 8.4802259 42 11.5 42 L 36.5 42 C 39.519774 42 42 39.519774 42 36.5 L 42 11.5 C 42 8.4802259 39.519774 6 36.5 6 L 11.5 6 z M 23.960938 13 L 24.039062 13 C 24.119062 13.01 24.210469 13.009766 24.230469 13.009766 C 25.250469 13.009766 28.459844 13.290234 30.089844 16.990234 C 30.629844 18.230234 30.510156 20.08 30.410156 21.75 L 30.400391 21.820312 C 30.400391 21.920313 30.390625 22.009609 30.390625 22.099609 C 30.390625 22.119609 30.380859 22.130391 30.380859 22.150391 C 30.420859 22.150391 30.450234 22.160156 30.490234 22.160156 C 30.750234 22.160156 31.059922 22.070391 31.419922 21.900391 C 31.569922 21.830391 31.749453 21.779297 31.939453 21.779297 C 32.549453 21.779297 33.260391 22.179609 33.400391 22.849609 C 33.480391 23.319609 33.319063 23.980234 32.039062 24.490234 C 31.929063 24.540234 31.790391 24.579141 31.650391 24.619141 C 31.320391 24.729141 30.690313 24.940469 30.570312 25.230469 C 30.550313 25.310469 30.579219 25.590391 30.699219 25.900391 C 31.149219 27.110391 32.200547 29.259297 35.310547 29.779297 C 35.730547 29.849297 36.02 30.220625 36 30.640625 L 36 30.669922 L 35.990234 30.699219 C 35.980234 30.759219 35.970391 30.88 35.900391 31 C 35.610391 31.65 34.609297 32.110156 32.779297 32.410156 C 32.749297 32.520156 32.719219 32.67 32.699219 32.75 L 32.699219 32.789062 C 32.659219 32.949062 32.620547 33.140078 32.560547 33.330078 C 32.500547 33.540078 32.299688 33.980469 31.679688 33.980469 C 31.529688 33.980469 31.359453 33.949922 31.189453 33.919922 L 31.089844 33.910156 C 30.769844 33.840156 30.390156 33.769531 29.910156 33.769531 C 29.640156 33.769531 29.350078 33.789844 29.080078 33.839844 C 28.550078 33.929844 28.059062 34.280156 27.539062 34.660156 C 26.679062 35.290156 25.700391 36 24.150391 36 C 24.110391 36 24.04 36.000234 24 35.990234 C 23.96 36.000234 23.889609 36 23.849609 36 C 22.299609 36 21.320938 35.290156 20.460938 34.660156 C 19.940938 34.280156 19.449922 33.929844 18.919922 33.839844 C 18.649922 33.789844 18.359844 33.769531 18.089844 33.769531 C 17.609844 33.769531 17.230625 33.840156 16.890625 33.910156 L 16.810547 33.919922 C 16.640547 33.949922 16.470313 33.980469 16.320312 33.980469 C 15.700313 33.980469 15.499453 33.540078 15.439453 33.330078 C 15.379453 33.140078 15.340781 32.949062 15.300781 32.789062 L 15.300781 32.75 C 15.280781 32.67 15.250703 32.520156 15.220703 32.410156 C 13.380703 32.100156 12.389609 31.65 12.099609 31 C 12.029609 30.88 12.019766 30.759453 12.009766 30.689453 L 12 30.669922 L 12 30.640625 C 11.98 30.220625 12.269687 29.849297 12.679688 29.779297 C 15.799688 29.259297 16.850781 27.110391 17.300781 25.900391 C 17.420781 25.590391 17.449688 25.310469 17.429688 25.230469 C 17.309687 24.940469 16.699844 24.739141 16.339844 24.619141 C 16.199844 24.579141 16.070703 24.540234 15.970703 24.490234 C 14.680703 23.980234 14.519609 23.319609 14.599609 22.849609 C 14.739609 22.179609 15.450547 21.779297 16.060547 21.779297 C 16.250547 21.779297 16.430078 21.830391 16.580078 21.900391 C 16.940078 22.070391 17.249766 22.160156 17.509766 22.160156 C 17.549766 22.160156 17.579141 22.150391 17.619141 22.150391 C 17.619141 22.130391 17.609375 22.119609 17.609375 22.099609 C 17.609375 22.009609 17.599609 21.920078 17.599609 21.830078 L 17.589844 21.75 C 17.489844 20.08 17.370156 18.230234 17.910156 16.990234 C 18.720156 15.140234 19.940313 14.139375 21.070312 13.609375 C 22.200312 13.079375 23.259531 13.009766 23.769531 13.009766 C 23.789531 13.009766 23.880938 13.01 23.960938 13 z"/></svg>